{"title":"I Me Aur Main (2013) Hindi 1CD DVDRip XviD MP3 ESubs","uid":8392261,"size":631329990,"categoryP":"video","categoryS":"movies","magnet":"?xt=urn:btih:4fb3ed9c098ba6c0c20866b99570aa4cb77e8bdd&amp;dn=I+Me+Aur+Main+%282013%29+Hindi+1CD+DVDRip+XviD+MP3+ESubs&amp;tr=udp%3A%2F%2Ftracker.openbittorrent.com%3A80&amp;tr=udp%3A%2F%2Fopen.demonii.com%3A1337&amp;tr=udp%3A%2F%2Ftracker.coppersurfer.tk%3A6969&amp;tr=udp%3A%2F%2Fexodus.desync.com%3A6969","seeders":1,"leechers":0,"uploader":"HDvideos","files":3,"time":1366469050,"description":"mastitorrents.com\n  &lt;a href=&quot;\nhttp://mastitorrents.com/forums/index.php&quot; rel=&quot;nofollow&quot; target=&quot;_NEW&quot;&gt;\nhttp://mastitorrents.com/forums/index.php&lt;/a&gt;\n  &lt;a href=&quot;\nhttp://thepiratebay.se/user/HDvideos/0/7&quot; rel=&quot;nofollow&quot; target=&quot;_NEW&quot;&gt;\nhttp://thepiratebay.se/user/HDvideos/0/7&lt;/a&gt;\n\nI Me Aur Main (2013) Hindi 1CD DVDRip XviD MP3 ESubs\n\nFormat                                   : AVI\nFormat/Info                              : Audio Video Interleave\nFile size                                : 589 MiB\nDuration                                 : 1h 45mn\nOverall bit rate                         : 784 Kbps\n\nFormat                                   : MPEG-4 Visual\nFormat profile                           : Advanced Simple@L5\nFormat settings, BVOP                    : 3\nFormat settings, QPel                    : No\nFormat settings, GMC                     : No warppoints\nFormat settings, Matrix                  : Default (MPEG)\nCodec ID                                 : XVID\nCodec ID/Hint                            : XviD\nDuration                                 : 1h 45mn\nBit rate                                 : 648 Kbps\nWidth                                    : 688 pixels\nHeight                                   : 288 pixels\nDisplay aspect ratio                     : 2.40:1\nFrame rate                               : 23.976 fps\nColor space                              : YUV\nChroma subsampling                       : 4:2:0\nBit depth                                : 8 bits\nScan type                                : Progressive\nCompression mode                         : Lossy\nBits/(Pixel*Frame)                       : 0.136\nStream size                              : 487 MiB (83%)\nWriting library                          : XviD 1.2.1 (UTC 2008-12-04)\n\nFormat                                   : AC-3\nFormat/Info                              : Audio Coding 3\nMode extension                           : CM (complete main)\nFormat settings, Endianness              : Big\nCodec ID                                 : 2000\nDuration                                 : 1h 45mn\nBit rate mode                            : Constant\nBit rate                                 : 128 Kbps\nChannel(s)                               : 6 channels\nChannel positions                        : Front: L C R, Side: L R, LFE\nSampling rate                            : 48.0 KHz\nBit depth                                : 16 bits\nCompression mode                         : Lossy\nStream size                              : 96.2 MiB (16%)\nAlignment                                : Aligned on interleaves\nInterleave, duration                     : 64 ms (1.53 video frames)\nInterleave, preload duration             : 512 ms\nTitle                                    : K@rtik\n\nScreens: &lt;a href=&quot;\nhttp://img856.imageshack.us/img856/7163/imeaurmain2013001.jpg&quot; rel=&quot;nofollow&quot; target=&quot;_NEW&quot;&gt;\nhttp://img856.imageshack.us/img856/7163/imeaurmain2013001.jpg&lt;/a&gt; &lt;a href=&quot;\nhttp://img201.imageshack.us/img201/4221/79745442.png&quot; rel=&quot;nofollow&quot; target=&quot;_NEW&quot;&gt;\nhttp://img201.imageshack.us/img201/4221/79745442.png&lt;/a&gt; &lt;a href=&quot;\nhttp://img29.imageshack.us/img29/4004/53444505.png&quot; rel=&quot;nofollow&quot; target=&quot;_NEW&quot;&gt;\nhttp://img29.imageshack.us/img29/4004/53444505.png&lt;/a&gt; &lt;a href=&quot;\nhttp://img716.imageshack.us/img716/6208/89235711.png&quot; rel=&quot;nofollow&quot; target=&quot;_NEW&quot;&gt;\nhttp://img716.imageshack.us/img716/6208/89235711.png&lt;/a&gt; &lt;a href=&quot;\nhttp://img825.imageshack.us/img825/6033/11588444.png&quot; rel=&quot;nofollow&quot; target=&quot;_NEW&quot;&gt;\nhttp://img825.imageshack.us/img825/6033/11588444.png&lt;/a&gt; &lt;a href=&quot;\nhttp://img195.imageshack.us/img195/746/49051267.png&quot; rel=&quot;nofollow&quot; target=&quot;_NEW&quot;&gt;\nhttp://img195.imageshack.us/img195/746/49051267.png&lt;/a&gt; &lt;a href=&quot;\nhttp://img692.imageshack.us/img692/3268/30013122v.png&quot; rel=&quot;nofollow&quot; target=&quot;_NEW&quot;&gt;\nhttp://img692.imageshack.us/img692/3268/30013122v.png&lt;/a&gt; &lt;a href=&quot;\nhttp://img849.imageshack.us/img849/9375/36710519.png&quot; rel=&quot;nofollow&quot; target=&quot;_NEW&quot;&gt;\nhttp://img849.imageshack.us/img849/9375/36710519.png&lt;/a&gt; &lt;a href=&quot;\nhttp://img22.imageshack.us/img22/1859/58764627.png&quot; rel=&quot;nofollow&quot; target=&quot;_NEW&quot;&gt;\nhttp://img22.imageshack.us/img22/1859/58764627.png&lt;/a&gt; &lt;a href=&quot;\nhttp://img16.imageshack.us/img16/5808/31266797.png&quot; rel=&quot;nofollow&quot; target=&quot;_NEW&quot;&gt;\nhttp://img16.imageshack.us/img16/5808/31266797.png&lt;/a&gt; &lt;a href=&quot;\nhttp://img211.imageshack.us/img211/9979/28364097.png&quot; rel=&quot;nofollow&quot; target=&quot;_NEW&quot;&gt;\nhttp://img211.imageshack.us/img211/9979/28364097.png&lt;/a&gt;","torrent":{"xt":"urn:btih:4fb3ed9c098ba6c0c20866b99570aa4cb77e8bdd","amp;dn":"I+Me+Aur+Main+%282013%29+Hindi+1CD+DVDRip+XviD+MP3+ESubs","amp;tr":["udp%3A%2F%2Ftracker.openbittorrent.com%3A80","udp%3A%2F%2Fopen.demonii.com%3A1337","udp%3A%2F%2Ftracker.coppersurfer.tk%3A6969","udp%3A%2F%2Fexodus.desync.com%3A6969"],"infoHash":"4fb3ed9c098ba6c0c20866b99570aa4cb77e8bdd","infoHashBuffer":{"type":"Buffer","data":[79,179,237,156,9,139,166,192,194,8,102,185,149,112,170,76,183,126,139,221]},"announce":[],"urlList":[]}}